<?xml version="1.0" encoding="UTF-8"?>
<svg id="Layer_07_Inputs_and_buttons" data-name="Layer 07 Inputs and buttons" xmlns="http://www.w3.org/2000/svg" viewBox="0 0 997.81 935.33">
  <defs>
    <style>
      .cls-1 {
        stroke: #000;
        stroke-miterlimit: 10;
      }

      .cls-1, .cls-2 {
        fill: #fff;
      }
    </style>
  </defs>
  <rect class="cls-1" x="244.1" y="176.86" width="386.36" height="47.73" rx="12" ry="12"/>
  <rect class="cls-1" x="264.11" y="412.9" width="79.55" height="47.73" rx="12" ry="12"/>
  <rect class="cls-1" x="397.51" y="412.9" width="79.55" height="47.73" rx="12" ry="12"/>
  <rect class="cls-1" x="520.42" y="412.9" width="79.55" height="47.73" rx="12" ry="12"/>
  <rect class="cls-1" x="520.42" y="469.91" width="79.55" height="47.73" rx="12" ry="12"/>
  <rect class="cls-1" x="397.51" y="469.91" width="79.55" height="47.73" rx="12" ry="12"/>
  <rect class="cls-1" x="520.42" y="526.91" width="79.55" height="47.73" rx="12" ry="12"/>
  <rect class="cls-1" x="397.51" y="526.91" width="79.55" height="47.73" rx="12" ry="12"/>
  <rect class="cls-1" x="244.1" y="290.86" width="386.36" height="47.73" rx="12" ry="12"/>
  <rect class="cls-1" x="244.1" y="351.88" width="386.36" height="47.73" rx="12" ry="12"/>
  <rect class="cls-1" x="244.1" y="233.86" width="386.36" height="47.73" rx="12" ry="12"/>
  <circle class="cls-1" cx="102.4" cy="493.77" r="14.2"/>
  <circle class="cls-1" cx="102.4" cy="546.12" r="14.2"/>
  <circle class="cls-1" cx="101.66" cy="621.41" r="14.2"/>
  <circle class="cls-1" cx="414.41" cy="621.41" r="14.2"/>
  <g>
    <rect class="cls-2" x="702.36" y="225.08" width="193.85" height="74.94" rx="11.5" ry="11.5"/>
    <path d="M884.71,225.59c6.07,0,11,4.93,11,11v51.94c0,6.07-4.93,11-11,11h-170.85c-6.07,0-11-4.93-11-11v-51.94c0-6.07,4.93-11,11-11h170.85M884.71,224.59h-170.85c-6.6,0-12,5.4-12,12v51.94c0,6.6,5.4,12,12,12h170.85c6.6,0,12-5.4,12-12v-51.94c0-6.6-5.4-12-12-12h0Z"/>
  </g>
  <g>
    <rect class="cls-2" x="702.36" y="323.52" width="193.85" height="74.94" rx="11.5" ry="11.5"/>
    <path d="M884.71,324.02c6.07,0,11,4.93,11,11v51.94c0,6.07-4.93,11-11,11h-170.85c-6.07,0-11-4.93-11-11v-51.94c0-6.07,4.93-11,11-11h170.85M884.71,323.02h-170.85c-6.6,0-12,5.4-12,12v51.94c0,6.6,5.4,12,12,12h170.85c6.6,0,12-5.4,12-12v-51.94c0-6.6-5.4-12-12-12h0Z"/>
  </g>
  <g>
    <rect x="702.36" y="483.81" width="193.85" height="74.94" rx="11.5" ry="11.5"/>
    <path d="M884.71,484.32c6.07,0,11,4.93,11,11v51.94c0,6.07-4.93,11-11,11h-170.85c-6.07,0-11-4.93-11-11v-51.94c0-6.07,4.93-11,11-11h170.85M884.71,483.32h-170.85c-6.6,0-12,5.4-12,12v51.94c0,6.6,5.4,12,12,12h170.85c6.6,0,12-5.4,12-12v-51.94c0-6.6-5.4-12-12-12h0Z"/>
  </g>
  <rect class="cls-1" x="701.86" y="584.44" width="93.75" height="47.73" rx="12" ry="12"/>
  <rect class="cls-1" x="802.96" y="584.44" width="93.75" height="47.73" rx="12" ry="12"/>
</svg>